{
    "asset" : {
        "generator" : "Khronos glTF Blender I/O v3.3.32",
        "version" : "2.0"
    },
    "scene" : 0,
    "scenes" : [
        {
            "name" : "Scene",
            "nodes" : [
                8
            ]
        }
    ],
    "nodes" : [
        {
            "mesh" : 0,
            "name" : "rail066_parts_0.001",
            "rotation" : [
                0.7071068286895752,
                -2.2870611671453643e-15,
                -1.479934800772411e-15,
                0.7071068286895752
            ],
            "scale" : [
                0.9999998807907104,
                0.9999997019767761,
                0.9999998211860657
            ],
            "translation" : [
                0.3583497107028961,
                -1.9759153127670288,
                0.05335816740989685
            ]
        },
        {
            "mesh" : 1,
            "name" : "rail066_parts_0.002",
            "rotation" : [
                0.7071068286895752,
                -2.2870611671453643e-15,
                -1.479934800772411e-15,
                0.7071068286895752
            ],
            "scale" : [
                0.9999998807907104,
                0.9999997019767761,
                0.9999998211860657
            ],
            "translation" : [
                -0.3583499789237976,
                -1.9759153127670288,
                0.05335816740989685
            ]
        },
        {
            "children" : [
                0,
                1
            ],
            "name" : "barrel_end",
            "rotation" : [
                0.013641681522130966,
                1.4711825152075508e-15,
                3.663488712390972e-08,
                0.9999069571495056
            ],
            "scale" : [
                1,
                0.9999999403953552,
                1
            ],
            "translation" : [
                -1.243732139499798e-08,
                2.0002355575561523,
                0.004631262272596359
            ]
        },
        {
            "mesh" : 2,
            "name" : "rail065_parts_0.001",
            "rotation" : [
                0.7166871428489685,
                2.5904775213803077e-08,
                2.5904778766516756e-08,
                0.697394847869873
            ],
            "scale" : [
                0.9999999403953552,
                0.9999997615814209,
                0.9999997615814209
            ],
            "translation" : [
                0.35834985971450806,
                -5.849659956425057e-08,
                -1.4542981929821508e-08
            ]
        },
        {
            "mesh" : 3,
            "name" : "rail065_parts_0.002",
            "rotation" : [
                0.7166871428489685,
                2.5904775213803077e-08,
                2.5904778766516756e-08,
                0.697394847869873
            ],
            "scale" : [
                0.9999999403953552,
                0.9999997615814209,
                0.9999997615814209
            ],
            "translation" : [
                -0.35834982991218567,
                -1.1100412677933491e-07,
                -1.5259340457873805e-08
            ]
        },
        {
            "children" : [
                2,
                3,
                4
            ],
            "name" : "barrel_root",
            "rotation" : [
                0.6973949074745178,
                -2.2416909217781722e-08,
                2.1116155934919334e-08,
                0.7166870832443237
            ],
            "translation" : [
                7.368897714243872e-10,
                -0.06871166825294495,
                -0.9999999403953552
            ]
        },
        {
            "mesh" : 4,
            "name" : "rail_turret032_parts_0.001",
            "rotation" : [
                -1,
                -8.829812372940097e-16,
                -6.742367730794285e-08,
                3.2740028466093918e-09
            ],
            "translation" : [
                -7.238166526039934e-16,
                0.4098708927631378,
                5.367673860945388e-09
            ]
        },
        {
            "children" : [
                5,
                6
            ],
            "name" : "base",
            "rotation" : [
                1,
                4.4149061864700483e-16,
                6.742367730794285e-08,
                3.2740028466093918e-09
            ],
            "translation" : [
                0,
                -0.018773138523101807,
                -0.000382397323846817
            ]
        },
        {
            "children" : [
                7
            ],
            "name" : "large_turret",
            "translation" : [
                0,
                0.4286440312862396,
                0.000382397323846817
            ]
        }
    ],
    "materials" : [
        {
            "doubleSided" : true,
            "emissiveFactor" : [
                1,
                1,
                1
            ],
            "emissiveTexture" : {
                "index" : 0
            },
            "name" : "parts",
            "normalTexture" : {
                "index" : 1
            },
            "occlusionTexture" : {
                "index" : 2
            },
            "pbrMetallicRoughness" : {
                "baseColorTexture" : {
                    "index" : 3
                },
                "metallicRoughnessTexture" : {
                    "index" : 2
                }
            }
        }
    ],
    "meshes" : [
        {
            "name" : "rail066_parts_0.001",
            "primitives" : [
                {
                    "attributes" : {
                        "POSITION" : 0,
                        "NORMAL" : 1,
                        "TEXCOORD_0" : 2
                    },
                    "indices" : 3,
                    "material" : 0
                }
            ]
        },
        {
            "name" : "rail066_parts_0.002",
            "primitives" : [
                {
                    "attributes" : {
                        "POSITION" : 4,
                        "NORMAL" : 5,
                        "TEXCOORD_0" : 6
                    },
                    "indices" : 3,
                    "material" : 0
                }
            ]
        },
        {
            "name" : "rail065_parts_0.001",
            "primitives" : [
                {
                    "attributes" : {
                        "POSITION" : 7,
                        "NORMAL" : 8,
                        "TEXCOORD_0" : 9
                    },
                    "indices" : 10,
                    "material" : 0
                }
            ]
        },
        {
            "name" : "rail065_parts_0.002",
            "primitives" : [
                {
                    "attributes" : {
                        "POSITION" : 11,
                        "NORMAL" : 12,
                        "TEXCOORD_0" : 13
                    },
                    "indices" : 10,
                    "material" : 0
                }
            ]
        },
        {
            "name" : "rail_turret008_parts_0.001",
            "primitives" : [
                {
                    "attributes" : {
                        "POSITION" : 14,
                        "NORMAL" : 15,
                        "TEXCOORD_0" : 16
                    },
                    "indices" : 17,
                    "material" : 0
                }
            ]
        }
    ],
    "textures" : [
        {
            "sampler" : 0,
            "source" : 0
        },
        {
            "sampler" : 0,
            "source" : 1
        },
        {
            "sampler" : 0,
            "source" : 2
        },
        {
            "sampler" : 0,
            "source" : 3
        }
    ],
    "images" : [
        {
            "mimeType" : "image/jpeg",
            "name" : "Image_2",
            "uri" : "Image_2.jpg"
        },
        {
            "mimeType" : "image/png",
            "name" : "Image_3",
            "uri" : "Image_3.png"
        },
        {
            "mimeType" : "image/png",
            "name" : "Image_1",
            "uri" : "Image_1.png"
        },
        {
            "mimeType" : "image/jpeg",
            "name" : "Image_0",
            "uri" : "Image_0.jpg"
        }
    ],
    "skins" : [
        {
            "inverseBindMatrices" : 18,
            "joints" : [
                7,
                5,
                2
            ],
            "name" : "large_turret"
        }
    ],
    "accessors" : [
        {
            "bufferView" : 0,
            "componentType" : 5126,
            "count" : 2444,
            "max" : [
                0.23588769137859344,
                0.24350762367248535,
                -0.7401994466781616
            ],
            "min" : [
                -0.2358837127685547,
                -0.2435920685529709,
                -3.5796518325805664
            ],
            "type" : "VEC3"
        },
        {
            "bufferView" : 1,
            "componentType" : 5126,
            "count" : 2444,
            "type" : "VEC3"
        },
        {
            "bufferView" : 2,
            "componentType" : 5126,
            "count" : 2444,
            "type" : "VEC2"
        },
        {
            "bufferView" : 3,
            "componentType" : 5123,
            "count" : 3459,
            "type" : "SCALAR"
        },
        {
            "bufferView" : 4,
            "componentType" : 5126,
            "count" : 2444,
            "max" : [
                0.23588769137859344,
                0.24350762367248535,
                -0.7401994466781616
            ],
            "min" : [
                -0.2358837127685547,
                -0.2435920685529709,
                -3.5796518325805664
            ],
            "type" : "VEC3"
        },
        {
            "bufferView" : 5,
            "componentType" : 5126,
            "count" : 2444,
            "type" : "VEC3"
        },
        {
            "bufferView" : 6,
            "componentType" : 5126,
            "count" : 2444,
            "type" : "VEC2"
        },
        {
            "bufferView" : 7,
            "componentType" : 5126,
            "count" : 662,
            "max" : [
                0.265658974647522,
                0.28272756934165955,
                0.17162127792835236
            ],
            "min" : [
                -0.2656570076942444,
                -0.26557624340057373,
                -1.2908145189285278
            ],
            "type" : "VEC3"
        },
        {
            "bufferView" : 8,
            "componentType" : 5126,
            "count" : 662,
            "type" : "VEC3"
        },
        {
            "bufferView" : 9,
            "componentType" : 5126,
            "count" : 662,
            "type" : "VEC2"
        },
        {
            "bufferView" : 10,
            "componentType" : 5123,
            "count" : 822,
            "type" : "SCALAR"
        },
        {
            "bufferView" : 11,
            "componentType" : 5126,
            "count" : 662,
            "max" : [
                0.265658974647522,
                0.28272756934165955,
                0.17162127792835236
            ],
            "min" : [
                -0.2656570076942444,
                -0.26557624340057373,
                -1.2908145189285278
            ],
            "type" : "VEC3"
        },
        {
            "bufferView" : 12,
            "componentType" : 5126,
            "count" : 662,
            "type" : "VEC3"
        },
        {
            "bufferView" : 13,
            "componentType" : 5126,
            "count" : 662,
            "type" : "VEC2"
        },
        {
            "bufferView" : 14,
            "componentType" : 5126,
            "count" : 1212,
            "max" : [
                0.8907064199447632,
                0.7486194372177124,
                1.3415510654449463
            ],
            "min" : [
                -0.8907050490379333,
                -0.07678183168172836,
                -0.9836180806159973
            ],
            "type" : "VEC3"
        },
        {
            "bufferView" : 15,
            "componentType" : 5126,
            "count" : 1212,
            "type" : "VEC3"
        },
        {
            "bufferView" : 16,
            "componentType" : 5126,
            "count" : 1212,
            "type" : "VEC2"
        },
        {
            "bufferView" : 17,
            "componentType" : 5123,
            "count" : 1284,
            "type" : "SCALAR"
        },
        {
            "bufferView" : 18,
            "componentType" : 5126,
            "count" : 3,
            "type" : "MAT4"
        }
    ],
    "bufferViews" : [
        {
            "buffer" : 0,
            "byteLength" : 29328,
            "byteOffset" : 0,
            "target" : 34962
        },
        {
            "buffer" : 0,
            "byteLength" : 29328,
            "byteOffset" : 29328,
            "target" : 34962
        },
        {
            "buffer" : 0,
            "byteLength" : 19552,
            "byteOffset" : 58656,
            "target" : 34962
        },
        {
            "buffer" : 0,
            "byteLength" : 6918,
            "byteOffset" : 78208,
            "target" : 34963
        },
        {
            "buffer" : 0,
            "byteLength" : 29328,
            "byteOffset" : 85128,
            "target" : 34962
        },
        {
            "buffer" : 0,
            "byteLength" : 29328,
            "byteOffset" : 114456,
            "target" : 34962
        },
        {
            "buffer" : 0,
            "byteLength" : 19552,
            "byteOffset" : 143784,
            "target" : 34962
        },
        {
            "buffer" : 0,
            "byteLength" : 7944,
            "byteOffset" : 163336,
            "target" : 34962
        },
        {
            "buffer" : 0,
            "byteLength" : 7944,
            "byteOffset" : 171280,
            "target" : 34962
        },
        {
            "buffer" : 0,
            "byteLength" : 5296,
            "byteOffset" : 179224,
            "target" : 34962
        },
        {
            "buffer" : 0,
            "byteLength" : 1644,
            "byteOffset" : 184520,
            "target" : 34963
        },
        {
            "buffer" : 0,
            "byteLength" : 7944,
            "byteOffset" : 186164,
            "target" : 34962
        },
        {
            "buffer" : 0,
            "byteLength" : 7944,
            "byteOffset" : 194108,
            "target" : 34962
        },
        {
            "buffer" : 0,
            "byteLength" : 5296,
            "byteOffset" : 202052,
            "target" : 34962
        },
        {
            "buffer" : 0,
            "byteLength" : 14544,
            "byteOffset" : 207348,
            "target" : 34962
        },
        {
            "buffer" : 0,
            "byteLength" : 14544,
            "byteOffset" : 221892,
            "target" : 34962
        },
        {
            "buffer" : 0,
            "byteLength" : 9696,
            "byteOffset" : 236436,
            "target" : 34962
        },
        {
            "buffer" : 0,
            "byteLength" : 2568,
            "byteOffset" : 246132,
            "target" : 34963
        },
        {
            "buffer" : 0,
            "byteLength" : 192,
            "byteOffset" : 248700
        }
    ],
    "samplers" : [
        {
            "magFilter" : 9729,
            "minFilter" : 9987
        }
    ],
    "buffers" : [
        {
            "byteLength" : 248892,
            "uri" : "turret_large.bin"
        }
    ]
}
